{
  "asset": {
    "version": "2.0",
    "generator": "3dpea GLTFExporter"
  },
  "scenes": [
    {
      "name": "AuxScene",
      "nodes": [
        9
      ]
    }
  ],
  "scene": 0,
  "nodes": [
    {
      "name": "Cylinder_Odogwu_texture_0",
      "extras": {
        "name": "Cylinder_Odogwu texture_0"
      },
      "mesh": 0
    },
    {
      "matrix": [
        161.43006896972656,
        0,
        0,
        0,
        0,
        -161.43006896972474,
        0.000024375262262502818,
        0,
        0,
        -0.000003875333818236821,
        -25.665176391601275,
        0,
        -5.539882183074951,
        109.87899017333984,
        -11.650753021240234,
        1
      ],
      "name": "Cylinder",
      "extras": {
        "name": "Cylinder"
      },
      "children": [
        0
      ]
    },
    {
      "name": "Cylinder001_Odogwu_texture001_0",
      "extras": {
        "name": "Cylinder.001_Odogwu texture.001_0"
      },
      "mesh": 1
    },
    {
      "matrix": [
        -283.1351013183594,
        0,
        0,
        0,
        0,
        0.00003553949954972604,
        -218.1398925781221,
        0,
        0,
        320.052062988277,
        0.00005214309961387384,
        0,
        -6.2511773109436035,
        91.26717376708984,
        -11.472931861877441,
        1
      ],
      "name": "Cylinder001",
      "extras": {
        "name": "Cylinder.001"
      },
      "children": [
        2
      ]
    },
    {
      "name": "NurbsPath_Odogwu_texture_0",
      "extras": {
        "name": "NurbsPath_Odogwu texture_0"
      },
      "mesh": 2
    },
    {
      "matrix": [
        -52.970183128492664,
        -17.48300977232099,
        0,
        0,
        0.0000013656014740396824,
        -0.000004137511847019267,
        -57.710857391357266,
        0,
        -18.087944757705433,
        54.803020687582574,
        -0.000004357049662687435,
        0,
        -5.0224289894104,
        71.81471252441406,
        -11.61488151550293,
        1
      ],
      "name": "NurbsPath",
      "extras": {
        "name": "NurbsPath"
      },
      "children": [
        4
      ]
    },
    {
      "name": "RootNode",
      "extras": {
        "name": "RootNode"
      },
      "children": [
        1,
        3,
        5
      ]
    },
    {
      "matrix": [
        0.009999999776482582,
        0,
        0,
        0,
        0,
        2.2204459996194763e-18,
        0.009999999776482582,
        0,
        0,
        -0.009999999776482582,
        2.2204459996194763e-18,
        0,
        0,
        0,
        0,
        1
      ],
      "name": "fff91fc88d624c76ba85a85336be4ecbfbx",
      "extras": {
        "name": "fff91fc88d624c76ba85a85336be4ecb.fbx"
      },
      "children": [
        6
      ]
    },
    {
      "matrix": [
        1,
        0,
        0,
        0,
        0,
        2.220446049250313e-16,
        -1,
        0,
        0,
        1,
        2.220446049250313e-16,
        0,
        0,
        0,
        0,
        1
      ],
      "name": "Sketchfab_model",
      "extras": {
        "name": "Sketchfab_model"
      },
      "children": [
        7
      ]
    },
    {
      "name": "igbo_odogwu_hand_fan_3d_model",
      "children": [
        8
      ]
    }
  ],
  "bufferViews": [
    {
      "buffer": 0,
      "byteOffset": 0,
      "byteLength": 6348,
      "target": 34962,
      "byteStride": 12
    },
    {
      "buffer": 0,
      "byteOffset": 6348,
      "byteLength": 6348,
      "target": 34962,
      "byteStride": 12
    },
    {
      "buffer": 0,
      "byteOffset": 12696,
      "byteLength": 8464,
      "target": 34962,
      "byteStride": 16
    },
    {
      "buffer": 0,
      "byteOffset": 21160,
      "byteLength": 4232,
      "target": 34962,
      "byteStride": 8
    },
    {
      "buffer": 0,
      "byteOffset": 25392,
      "byteLength": 4232,
      "target": 34962,
      "byteStride": 8
    },
    {
      "buffer": 0,
      "byteOffset": 29624,
      "byteLength": 9600,
      "target": 34963
    },
    {
      "buffer": 0,
      "byteOffset": 39224,
      "byteLength": 14484,
      "target": 34962,
      "byteStride": 12
    },
    {
      "buffer": 0,
      "byteOffset": 53708,
      "byteLength": 14484,
      "target": 34962,
      "byteStride": 12
    },
    {
      "buffer": 0,
      "byteOffset": 68192,
      "byteLength": 19312,
      "target": 34962,
      "byteStride": 16
    },
    {
      "buffer": 0,
      "byteOffset": 87504,
      "byteLength": 9656,
      "target": 34962,
      "byteStride": 8
    },
    {
      "buffer": 0,
      "byteOffset": 97160,
      "byteLength": 9656,
      "target": 34962,
      "byteStride": 8
    },
    {
      "buffer": 0,
      "byteOffset": 106816,
      "byteLength": 13776,
      "target": 34963
    },
    {
      "buffer": 0,
      "byteOffset": 120592,
      "byteLength": 13824,
      "target": 34962,
      "byteStride": 12
    },
    {
      "buffer": 0,
      "byteOffset": 134416,
      "byteLength": 13824,
      "target": 34962,
      "byteStride": 12
    },
    {
      "buffer": 0,
      "byteOffset": 148240,
      "byteLength": 18432,
      "target": 34962,
      "byteStride": 16
    },
    {
      "buffer": 0,
      "byteOffset": 166672,
      "byteLength": 9216,
      "target": 34962,
      "byteStride": 8
    },
    {
      "buffer": 0,
      "byteOffset": 175888,
      "byteLength": 9216,
      "target": 34962,
      "byteStride": 8
    },
    {
      "buffer": 0,
      "byteOffset": 185104,
      "byteLength": 27072,
      "target": 34963
    }
  ],
  "buffers": [
    {
      "byteLength": 212176,
      "uri": "data:application/octet-stream;base64,"
    }
  ],
  "accessors": [
    {
      "bufferView": 0,
      "componentType": 5126,
      "count": 529,
      "max": [
        0.9998205304145813,
        0.8810262084007263,
        0.999847948551178
      ],
      "min": [
        -0.9981064796447754,
        -0.9999999403953552,
        -0.9992226958274841
      ],
      "type": "VEC3"
    },
    {
      "bufferView": 1,
      "componentType": 5126,
      "count": 529,
      "max": [
        0.1155160591006279,
        0.11606837064027786,
        0.051454681903123856
      ],
      "min": [
        -0.11528261750936508,
        -0.11576143652200699,
        -0.06507430970668793
      ],
      "type": "VEC3"
    },
    {
      "bufferView": 2,
      "componentType": 5126,
      "count": 529,
      "max": [
        0.9984726309776306,
        0.8934473991394043,
        0.9989013075828552,
        1
      ],
      "min": [
        -0.9999121427536011,
        -0.6080189347267151,
        -0.9999995827674866,
        -1
      ],
      "type": "VEC4"
    },
    {
      "bufferView": 3,
      "componentType": 5126,
      "count": 529,
      "max": [
        0.904422402381897,
        1.0000001192092896
      ],
      "min": [
        2.1630550128826087e-10,
        3.0061017564086967e-10
      ],
      "type": "VEC2"
    },
    {
      "bufferView": 4,
      "componentType": 5126,
      "count": 529,
      "max": [
        0.904422402381897,
        1.0000001192092896
      ],
      "min": [
        2.1630550128826087e-10,
        3.0061017564086967e-10
      ],
      "type": "VEC2"
    },
    {
      "bufferView": 5,
      "componentType": 5125,
      "count": 2400,
      "max": [
        528
      ],
      "min": [
        0
      ],
      "type": "SCALAR"
    },
    {
      "bufferView": 6,
      "componentType": 5126,
      "count": 1207,
      "max": [
        0.9992948174476624,
        0.99830561876297,
        0.9667584896087646
      ],
      "min": [
        -0.9986221790313721,
        -0.9983055591583252,
        -0.9992446899414062
      ],
      "type": "VEC3"
    },
    {
      "bufferView": 7,
      "componentType": 5126,
      "count": 1207,
      "max": [
        0.006310105323791504,
        0.006757750641554594,
        0.004379600286483765
      ],
      "min": [
        -0.006538668181747198,
        -0.006757752504199743,
        -0.051217999309301376
      ],
      "type": "VEC3"
    },
    {
      "bufferView": 8,
      "componentType": 5126,
      "count": 1207,
      "max": [
        0.9999836087226868,
        0.9999967813491821,
        0.9982059597969055,
        1
      ],
      "min": [
        -0.9998819231987,
        -0.9999964833259583,
        -0.9476788640022278,
        -1
      ],
      "type": "VEC4"
    },
    {
      "bufferView": 9,
      "componentType": 5126,
      "count": 1207,
      "max": [
        0.8674477338790894,
        0.5828366279602051
      ],
      "min": [
        0.4733662009239197,
        0.14957579970359802
      ],
      "type": "VEC2"
    },
    {
      "bufferView": 10,
      "componentType": 5126,
      "count": 1207,
      "max": [
        0.8674477338790894,
        0.5828366279602051
      ],
      "min": [
        0.4733662009239197,
        0.14957579970359802
      ],
      "type": "VEC2"
    },
    {
      "bufferView": 11,
      "componentType": 5125,
      "count": 3444,
      "max": [
        1206
      ],
      "min": [
        0
      ],
      "type": "SCALAR"
    },
    {
      "bufferView": 12,
      "componentType": 5126,
      "count": 1152,
      "max": [
        0.9999997615814209,
        0.9999485611915588,
        0.9901666045188904
      ],
      "min": [
        -0.9999998211860657,
        -0.9999605417251587,
        -0.9912645816802979
      ],
      "type": "VEC3"
    },
    {
      "bufferView": 13,
      "componentType": 5126,
      "count": 1152,
      "max": [
        0.013381927274167538,
        0.017306102439761162,
        0.07748273760080338
      ],
      "min": [
        -0.0143495574593544,
        -0.017965741455554962,
        -0.053370557725429535
      ],
      "type": "VEC3"
    },
    {
      "bufferView": 14,
      "componentType": 5126,
      "count": 1152,
      "max": [
        0.8561204671859741,
        0.9927465319633484,
        0.6900279521942139,
        1
      ],
      "min": [
        -0.8866934180259705,
        -0.9602031707763672,
        -0.7951310276985168,
        -1
      ],
      "type": "VEC4"
    },
    {
      "bufferView": 15,
      "componentType": 5126,
      "count": 1152,
      "max": [
        0.5772847533226013,
        0.13035948574543
      ],
      "min": [
        0.49154308438301086,
        0.03403758257627487
      ],
      "type": "VEC2"
    },
    {
      "bufferView": 16,
      "componentType": 5126,
      "count": 1152,
      "max": [
        0.5772847533226013,
        0.13035948574543
      ],
      "min": [
        0.49154308438301086,
        0.03403758257627487
      ],
      "type": "VEC2"
    },
    {
      "bufferView": 17,
      "componentType": 5125,
      "count": 6768,
      "max": [
        1151
      ],
      "min": [
        0
      ],
      "type": "SCALAR"
    }
  ],
  "materials": [
    {
      "pbrMetallicRoughness": {
        "metallicFactor": 0,
        "roughnessFactor": 1,
        "metallicRoughnessTexture": {
          "index": 0
        },
        "baseColorTexture": {
          "index": 1
        }
      },
      "normalTexture": {
        "index": 2
      },
      "doubleSided": true,
      "name": "Odogwu_texture"
    },
    {
      "pbrMetallicRoughness": {
        "metallicFactor": 0,
        "roughnessFactor": 1,
        "metallicRoughnessTexture": {
          "index": 0
        },
        "baseColorTexture": {
          "index": 1
        }
      },
      "normalTexture": {
        "index": 2
      },
      "doubleSided": true,
      "name": "Odogwu_texture.001"
    },
    {
      "pbrMetallicRoughness": {
        "metallicFactor": 0,
        "roughnessFactor": 1,
        "metallicRoughnessTexture": {
          "index": 0
        },
        "baseColorTexture": {
          "index": 1
        }
      },
      "normalTexture": {
        "index": 2
      },
      "doubleSided": true,
      "name": "Odogwu_texture"
    }
  ],
  "textures": [
    {
      "sampler": 0,
      "source": 0
    },
    {
      "sampler": 1,
      "source": 1
    },
    {
      "sampler": 2,
      "source": 2
    }
  ],
  "samplers": [
    {
      "magFilter": 9729,
      "minFilter": 9987,
      "wrapS": 10497,
      "wrapT": 10497
    },
    {
      "magFilter": 9729,
      "minFilter": 9987,
      "wrapS": 10497,
      "wrapT": 10497
    },
    {
      "magFilter": 9729,
      "minFilter": 9987,
      "wrapS": 10497,
      "wrapT": 10497
    }
  ],
  "images": [
    {
      "mimeType": "image/png",
      "uri": "data:image/png;base64,"
    },
    {
      "mimeType": "image/png",
      "uri": "data:image/png;base64,"
    },
    {
      "mimeType": "image/png",
      "uri": "data:image/png;base64,"
    }
  ],
  "meshes": [
    {
      "primitives": [
        {
          "mode": 4,
          "attributes": {
            "NORMAL": 0,
            "POSITION": 1,
            "TANGENT": 2,
            "TEXCOORD_0": 3,
            "TEXCOORD_1": 4
          },
          "indices": 5,
          "material": 0
        }
      ]
    },
    {
      "primitives": [
        {
          "mode": 4,
          "attributes": {
            "NORMAL": 6,
            "POSITION": 7,
            "TANGENT": 8,
            "TEXCOORD_0": 9,
            "TEXCOORD_1": 10
          },
          "indices": 11,
          "material": 1
        }
      ]
    },
    {
      "primitives": [
        {
          "mode": 4,
          "attributes": {
            "NORMAL": 12,
            "POSITION": 13,
            "TANGENT": 14,
            "TEXCOORD_0": 15,
            "TEXCOORD_1": 16
          },
          "indices": 17,
          "material": 2
        }
      ]
    }
  ]
}